<svg xmlns="http://www.w3.org/2000/svg" width="600" height="600"><path d="M87.955 36.137v237.271c0 57.9 53.806 133.123 109.856 191.518 42.297 44.067 84.5 78.77 102.742 93.21 17.928-15.58 60.51-53.672 103.476-100.263 28.12-30.493 56.124-64.42 76.746-97.05 20.623-32.631 33.317-64.043 33.317-87.415V36.137zm181.068 37.191h64v230.356h-64zm32 286.332a34 34 0 0 1 34 34 34 34 0 0 1-34 34 34 34 0 0 1-34-34 34 34 0 0 1 34-34" style="baseline-shift:baseline;display:inline;overflow:visible;vector-effect:none;fill:#202020;fill-rule:evenodd;stop-color:#000;fill-opacity:1"/></svg>